<svg xmlns="http://www.w3.org/2000/svg" width="20" height="20" viewBox="0 0 20 20" fill="none">
  <circle cx="7.50008" cy="6.25002" r="2.83333" stroke="#FEFEFE"/>
  <path d="M7.49976 11.3333C9.34238 11.3333 10.5408 11.7568 11.3201 12.4007C12.0967 13.0425 12.5253 13.9597 12.7146 15.0892C12.8052 15.6308 12.3441 16.1662 11.6677 16.1663H3.33276C2.6563 16.1663 2.19527 15.6309 2.28589 15.0892C2.47518 13.9599 2.90299 13.0424 3.67944 12.4007C4.45871 11.7568 5.65727 11.3334 7.49976 11.3333Z" stroke="#FEFEFE"/>
  <path d="M14.9556 15.8333H15.2651C15.7209 15.8333 16.4755 15.8333 17.0833 15.8333C17.5436 15.8333 17.9246 15.4564 17.8652 15C17.4274 11.6344 14.3184 11.6344 13.4974 11.6344M12.0833 4.81141C12.2266 4.78115 12.3755 4.7652 12.5282 4.7652C13.6771 4.7652 14.6085 5.66758 14.6085 6.78071C14.6085 7.89384 13.6771 8.79621 12.5282 8.79621C12.3755 8.79621 12.2266 8.78029 12.0833 8.74999" stroke="#FEFEFE" stroke-linecap="round"/>
</svg>