<svg xmlns="http://www.w3.org/2000/svg" width="20" height="20" viewBox="0 0 20 20" fill="none">
  <path d="M3.76609 6.43787C3.76609 5.49314 4.14138 4.58709 4.80942 3.91906C5.47745 3.25103 6.38349 2.87573 7.32823 2.87573C8.27297 2.87573 9.17902 3.25103 9.84705 3.91906C10.5151 4.58709 10.8904 5.49314 10.8904 6.43787C10.8904 7.38261 10.5151 8.28866 9.84705 8.95669C9.17902 9.62472 8.27297 10 7.32823 10C6.38349 10 5.47745 9.62472 4.80942 8.95669C4.14138 8.28866 3.76609 7.38261 3.76609 6.43787ZM1.09448 16.2978C1.09448 13.5566 3.31526 11.3358 6.05644 11.3358H8.60003C11.3412 11.3358 13.562 13.5566 13.562 16.2978C13.562 16.7542 13.1918 17.1243 12.7355 17.1243H1.92101C1.46461 17.1243 1.09448 16.7542 1.09448 16.2978ZM18.0508 17.1243H14.216C14.3662 16.8627 14.4553 16.5594 14.4553 16.2338V16.0111C14.4553 14.3219 13.7011 12.8052 12.5128 11.7867C12.5796 11.7839 12.6436 11.7811 12.7104 11.7811H14.4191C16.8959 11.7811 18.9052 13.7904 18.9052 16.2699C18.9052 16.743 18.5211 17.1243 18.0508 17.1243ZM13.1167 10C12.254 10 11.4748 9.64937 10.9099 9.08444C11.4581 8.34418 11.7809 7.4286 11.7809 6.43787C11.7809 5.69205 11.5972 4.98797 11.2716 4.37016C11.7893 3.99168 12.4265 3.76627 13.1167 3.76627C14.8393 3.76627 16.2336 5.16051 16.2336 6.88314C16.2336 8.60577 14.8393 10 13.1167 10Z" fill="#FEFEFE"/>
</svg>