<svg xmlns="http://www.w3.org/2000/svg" width="40" height="40" viewBox="0 0 40 40" fill="none">
  <path fill-rule="evenodd" clip-rule="evenodd" d="M8.8002 12.6401C8.8002 9.71211 9.98019 6.90404 12.0806 4.83364C14.181 2.76324 17.0298 1.6001 20.0002 1.6001C22.9706 1.6001 25.8194 2.76324 27.9198 4.83364C30.0202 6.90404 31.2002 9.71211 31.2002 12.6401H33.0669C34.057 12.6401 35.0066 13.0278 35.7067 13.7179C36.4069 14.4081 36.8002 15.3441 36.8002 16.3201V34.7201C36.8002 35.6961 36.4069 36.6321 35.7067 37.3223C35.0066 38.0124 34.057 38.4001 33.0669 38.4001H6.93353C5.94339 38.4001 4.9938 38.0124 4.29366 37.3223C3.59353 36.6321 3.2002 35.6961 3.2002 34.7201V16.3201C3.2002 15.3441 3.59353 14.4081 4.29366 13.7179C4.9938 13.0278 5.94339 12.6401 6.93353 12.6401H8.8002ZM20.0002 5.2801C21.9805 5.2801 23.8797 6.05552 25.2799 7.43579C26.6802 8.81606 27.4669 10.6881 27.4669 12.6401H12.5335C12.5335 10.6881 13.3202 8.81606 14.7205 7.43579C16.1207 6.05552 18.0199 5.2801 20.0002 5.2801ZM23.7335 23.6801C23.7335 24.3261 23.561 24.9606 23.2333 25.52C22.9057 26.0795 22.4344 26.544 21.8669 26.867V29.2001C21.8669 29.6881 21.6702 30.1561 21.3201 30.5012C20.9701 30.8462 20.4953 31.0401 20.0002 31.0401C19.5051 31.0401 19.0303 30.8462 18.6803 30.5012C18.3302 30.1561 18.1335 29.6881 18.1335 29.2001V26.867C17.4218 26.4619 16.8656 25.8367 16.5512 25.0883C16.2367 24.3399 16.1815 23.5101 16.3942 22.7276C16.6069 21.9452 17.0756 21.2538 17.7276 20.7606C18.3796 20.2675 19.1784 20.0001 20.0002 20.0001C20.9903 20.0001 21.9399 20.3878 22.6401 21.0779C23.3402 21.7681 23.7335 22.7041 23.7335 23.6801Z" fill="#FEFEFE"/>
</svg>