<svg width="75" height="75" viewBox="0 0 75 75" fill="none" xmlns="http://www.w3.org/2000/svg">
<path d="M0 74.1968C0 74.1968 6.95437 52.8582 3.64411 35.7207C1.76419 25.9879 4.75396 15.0714 9.62514 9.88866C14.7649 4.41909 19.4026 1.52174 24.2396 0.773068C32.9077 -0.570303 36.5668 -0.287045 46.6867 2.61044C54.9865 6.76037 60.6245 11.5152 63.2864 16.0977C66.0328 20.8228 65.1589 32.2626 63.2864 39.9598C61.2114 45.1472 54.9865 60.7094 67.4363 51.3721C71.4114 48.3908 69.9116 56.1059 68.4738 58.6345C64.3239 66.9343 74.8437 70.8461 74.6968 74.1968H0Z" fill="#6868FF"/>
<path d="M33.415 34.7369C32.5102 37.7138 29.3902 40.1234 25.8794 39.2929C23.8535 38.8143 22.6918 36.8397 23.08 34.7369C23.2788 34.0824 23.6682 33.6528 24.3228 33.511C26.4582 33.0528 27.9729 32.5224 28.6667 30.9514C29.4984 28.2132 27.8269 26.1064 23.4045 24.2354L24.3309 21.9077C31.7258 23.8686 35.169 28.9632 33.415 34.7369Z" fill="#FEFEFE"/>
<path d="M20.3694 34.7369C19.4647 37.7138 16.3447 40.1234 12.8339 39.2929C10.808 38.8143 9.64629 36.8397 10.0344 34.7369C10.2332 34.0824 10.6227 33.6528 11.2773 33.511C13.4127 33.0528 14.9274 32.5224 15.6212 30.9514C16.4529 28.2132 14.7813 26.1064 10.359 24.2354L11.2854 21.9077C18.6803 23.8686 22.1235 28.9632 20.3694 34.7369Z" fill="#FEFEFE"/>
<path d="M60.694 46.7033L65.8814 51.8907M63.2877 38.9222C63.2877 33.1923 58.6428 28.5474 52.9129 28.5474C47.183 28.5474 42.5381 33.1923 42.5381 38.9222C42.5381 44.6521 47.183 49.297 52.9129 49.297C58.6428 49.297 63.2877 44.6521 63.2877 38.9222Z" stroke="#FEFEFE" stroke-width="3" stroke-linecap="round" stroke-linejoin="round"/>
</svg>
